<svg xmlns="http://www.w3.org/2000/svg" width="22.56" height="23.5" viewBox="0 0 22.56 23.5">
  <path id="card-icon" d="M12.69,10.452h2.238V7.1h3.357V4.857H14.929V1.5H12.69V4.857H9.333V7.1H12.69ZM8.214,20.524a2.238,2.238,0,1,0,2.238,2.238A2.235,2.235,0,0,0,8.214,20.524Zm11.19,0a2.238,2.238,0,1,0,2.238,2.238A2.235,2.235,0,0,0,19.4,20.524Zm-11-3.637.034-.134,1.007-1.824h8.337a2.227,2.227,0,0,0,1.958-1.153l4.32-7.845L22.113,4.857H22.1L20.871,7.1l-3.089,5.6H9.926l-.145-.3L7.274,7.1,6.211,4.857,5.159,2.619H1.5V4.857H3.738l4.029,8.494L6.256,16.092a2.164,2.164,0,0,0-.28,1.074A2.245,2.245,0,0,0,8.214,19.4H21.643V17.167H8.684A.284.284,0,0,1,8.4,16.887Z" transform="translate(-1.5 -1.5)" fill="#fff"/>
</svg>
