<svg xmlns="http://www.w3.org/2000/svg" width="232.133" height="67.138" viewBox="0 0 232.133 67.138"><g transform="translate(-183.652 -24.561)"><path d="M49.593,18.24a1.858,1.858,0,0,1-.881-1.595,18.316,18.316,0,0,0-36.48,0,1.865,1.865,0,0,1-.878,1.595,18.363,18.363,0,0,0,5.838,32.756c1.418.355,2.658.529,3.189.171,1.06-.526,2.126-5.125,1.595-6.191a6.028,6.028,0,0,0-2.837-1.416,10.829,10.829,0,0,1-7.967-10.44,10.654,10.654,0,0,1,2.837-7.274,9.954,9.954,0,0,1,2.652-2.118,6.269,6.269,0,0,0,3.189-5.494,10.186,10.186,0,0,1,.529-3.36,10.809,10.809,0,0,1,20.54,0,10.186,10.186,0,0,1,.529,3.36A5.9,5.9,0,0,0,44.642,23.7a7.439,7.439,0,0,1,2.646,2.1,10.565,10.565,0,0,1,2.837,7.268,10.738,10.738,0,0,1-10.8,10.8,12.4,12.4,0,0,0-12.4,12.354V63.28a6.6,6.6,0,0,0,.532,3.195c.881.884,5.489.884,6.373,0,.38-.38.546-1.765.546-3.195V56.054a4.791,4.791,0,0,1,4.792-4.792A18.2,18.2,0,0,0,49.635,18.148l-.042.092Z" transform="translate(180.09 24.56)" fill="#fff"/><g transform="translate(259.96 24)"><path d="M20.712-16.944c-2.568,0-4.584,1.056-5.568,3.144-.816-1.992-2.76-3.144-5.4-3.144-2.5,0-4.368,1.008-5.3,2.952V-16.8h-1.7V0H4.512V-10.056c0-3.72,1.944-5.3,4.848-5.3,2.784,0,4.536,1.56,4.536,4.92V0h1.752V-10.056c0-3.72,1.9-5.3,4.8-5.3,2.76,0,4.608,1.56,4.608,4.92V0h1.752V-10.488C26.808-14.76,24.48-16.944,20.712-16.944Zm20.9,4.32v2.4a5.514,5.514,0,0,0-4.8-2.5,6.107,6.107,0,0,0-6.288,6.408A6.127,6.127,0,0,0,36.816.12,5.468,5.468,0,0,0,41.688-2.5V0H43.32V-12.624ZM36.96-1.392a4.622,4.622,0,0,1-4.7-4.92,4.622,4.622,0,0,1,4.7-4.92,4.617,4.617,0,0,1,4.68,4.92A4.617,4.617,0,0,1,36.96-1.392ZM51.456.12c3.288,0,5.208-1.416,5.208-3.6,0-4.848-8.184-2.28-8.184-5.688,0-1.2,1.008-2.088,3.288-2.088a6.471,6.471,0,0,1,3.72,1.08l.744-1.368a8.555,8.555,0,0,0-4.464-1.176c-3.216,0-4.992,1.536-4.992,3.6,0,4.992,8.184,2.4,8.184,5.688,0,1.248-.984,2.064-3.384,2.064a7.625,7.625,0,0,1-4.488-1.416L46.32-1.44A8.434,8.434,0,0,0,51.456.12Z" transform="translate(0 43.806)" fill="#fff"/><path d="M41.238,0,26.1-21,40.252-40.6H30.1L20.938-27.434,11.6-40.6H.928L15.2-20.648.174,0H10.962L20.59-14.094,30.392,0Z" transform="translate(53.852 56)" fill="#e53935"/><path d="M10.032.144A8.169,8.169,0,0,0,16.2-2.328L15.072-3.456A6.59,6.59,0,0,1,10.1-1.44,6.866,6.866,0,0,1,3-8.4a6.866,6.866,0,0,1,7.1-6.96,6.658,6.658,0,0,1,4.968,1.992L16.2-14.5a8.134,8.134,0,0,0-6.144-2.448A8.435,8.435,0,0,0,1.248-8.4,8.428,8.428,0,0,0,10.032.144ZM26.064-12.72a5.335,5.335,0,0,0-4.728,2.3v-7.392h-1.7V0h1.7V-6.624c0-2.88,1.7-4.56,4.416-4.56,2.4,0,3.792,1.368,3.792,4.032V0h1.7V-7.32C31.248-10.944,29.136-12.72,26.064-12.72Zm11.448,2.568v-2.472H35.88V0h1.7V-6.432c0-2.976,1.608-4.656,4.248-4.656.12,0,.264.024.408.024V-12.72C39.912-12.72,38.3-11.832,37.512-10.152Zm8.664-5.232a1.225,1.225,0,0,0,1.248-1.248,1.21,1.21,0,0,0-1.248-1.176,1.23,1.23,0,0,0-1.248,1.2A1.234,1.234,0,0,0,46.176-15.384ZM45.312,0h1.7V-12.624h-1.7Zm9.84.12C58.44.12,60.36-1.3,60.36-3.48c0-4.848-8.184-2.28-8.184-5.688,0-1.2,1.008-2.088,3.288-2.088a6.471,6.471,0,0,1,3.72,1.08l.744-1.368a8.555,8.555,0,0,0-4.464-1.176c-3.216,0-4.992,1.536-4.992,3.6,0,4.992,8.184,2.4,8.184,5.688,0,1.248-.984,2.064-3.384,2.064a7.625,7.625,0,0,1-4.488-1.416L50.016-1.44A8.434,8.434,0,0,0,55.152.12Z" transform="translate(95.465 43.806)" fill="#fff"/></g></g></svg>