<svg xmlns="http://www.w3.org/2000/svg" width="190.648" height="54.856" viewBox="0 0 190.648 54.856"><g transform="translate(-183.652 -24.458)"><path d="M41.172,14.9a1.518,1.518,0,0,1-.72-1.3,14.966,14.966,0,0,0-29.806,0,1.524,1.524,0,0,1-.718,1.3A15,15,0,0,0,14.7,41.665,4.093,4.093,0,0,0,17.3,41.8c.866-.43,1.737-4.187,1.3-5.058a4.925,4.925,0,0,0-2.318-1.157,8.848,8.848,0,0,1-6.51-8.53A8.7,8.7,0,0,1,12.1,21.116a8.133,8.133,0,0,1,2.167-1.73A5.122,5.122,0,0,0,16.87,14.9a8.322,8.322,0,0,1,.432-2.745,8.831,8.831,0,0,1,16.782,0,8.322,8.322,0,0,1,.432,2.745,4.82,4.82,0,0,0,2.61,4.464,6.078,6.078,0,0,1,2.162,1.719,8.632,8.632,0,0,1,2.318,5.938,8.774,8.774,0,0,1-8.823,8.825A10.133,10.133,0,0,0,22.655,45.937V51.7a5.394,5.394,0,0,0,.434,2.61c.72.722,4.485.722,5.207,0a5.018,5.018,0,0,0,.446-2.61V45.8a3.914,3.914,0,0,1,3.915-3.915,14.868,14.868,0,0,0,8.549-27.056l-.034.075Z" transform="translate(180.09 24.458)" fill="#fff"/><path d="M17.26-14.12a4.773,4.773,0,0,0-4.64,2.62,4.506,4.506,0,0,0-4.5-2.62A4.54,4.54,0,0,0,3.7-11.66V-14H2.28V0H3.76V-8.38c0-3.1,1.62-4.42,4.04-4.42,2.32,0,3.78,1.3,3.78,4.1V0h1.46V-8.38c0-3.1,1.58-4.42,4-4.42,2.3,0,3.84,1.3,3.84,4.1V0h1.46V-8.74C22.34-12.3,20.4-14.12,17.26-14.12Zm17.42,3.6v2a4.6,4.6,0,0,0-4-2.08,5.089,5.089,0,0,0-5.24,5.34A5.106,5.106,0,0,0,30.68.1a4.557,4.557,0,0,0,4.06-2.18V0H36.1V-10.52ZM30.8-1.16a3.852,3.852,0,0,1-3.92-4.1,3.852,3.852,0,0,1,3.92-4.1,3.847,3.847,0,0,1,3.9,4.1A3.847,3.847,0,0,1,30.8-1.16ZM42.88.1c2.74,0,4.34-1.18,4.34-3,0-4.04-6.82-1.9-6.82-4.74,0-1,.84-1.74,2.74-1.74a5.392,5.392,0,0,1,3.1.9l.62-1.14a7.129,7.129,0,0,0-3.72-.98c-2.68,0-4.16,1.28-4.16,3,0,4.16,6.82,2,6.82,4.74,0,1.04-.82,1.72-2.82,1.72a6.354,6.354,0,0,1-3.74-1.18L38.6-1.2A7.028,7.028,0,0,0,42.88.1Z" transform="translate(246 60)" fill="#fff"/><path d="M34.839,0,22.05-17.738,34.006-34.3H25.431L17.689-23.177,9.8-34.3H.784L12.838-17.444.147,0H9.261L17.4-11.907,25.676,0Z" transform="translate(290 71)" fill="#52a854"/><path d="M8.36.12A6.808,6.808,0,0,0,13.5-1.94l-.94-.94A5.492,5.492,0,0,1,8.42-1.2,5.721,5.721,0,0,1,2.5-7a5.721,5.721,0,0,1,5.92-5.8,5.548,5.548,0,0,1,4.14,1.66l.94-.94a6.779,6.779,0,0,0-5.12-2.04A7.029,7.029,0,0,0,1.04-7,7.024,7.024,0,0,0,8.36.12ZM21.72-10.6a4.446,4.446,0,0,0-3.94,1.92v-6.16H16.36V0h1.42V-5.52a3.449,3.449,0,0,1,3.68-3.8c2,0,3.16,1.14,3.16,3.36V0h1.42V-6.1C26.04-9.12,24.28-10.6,21.72-10.6Zm9.54,2.14v-2.06H29.9V0h1.42V-5.36c0-2.48,1.34-3.88,3.54-3.88.1,0,.22.02.34.02V-10.6A3.967,3.967,0,0,0,31.26-8.46Zm7.22-4.36a1.021,1.021,0,0,0,1.04-1.04,1.009,1.009,0,0,0-1.04-.98,1.025,1.025,0,0,0-1.04,1A1.029,1.029,0,0,0,38.48-12.82ZM37.76,0h1.42V-10.52H37.76Zm8.2.1c2.74,0,4.34-1.18,4.34-3,0-4.04-6.82-1.9-6.82-4.74,0-1,.84-1.74,2.74-1.74a5.392,5.392,0,0,1,3.1.9l.62-1.14a7.129,7.129,0,0,0-3.72-.98c-2.68,0-4.16,1.28-4.16,3,0,4.16,6.82,2,6.82,4.74,0,1.04-.82,1.72-2.82,1.72a6.354,6.354,0,0,1-3.74-1.18L41.68-1.2A7.028,7.028,0,0,0,45.96.1Z" transform="translate(324 60)" fill="#fff"/></g></svg>